<?xml version="1.0" standalone="no"?>
<!DOCTYPE svg PUBLIC "-//W3C//DTD SVG 20010904//EN"
 "http://www.w3.org/TR/2001/REC-SVG-20010904/DTD/svg10.dtd">
<svg version="1.0" xmlns="http://www.w3.org/2000/svg"
 width="700.000000pt" height="700.000000pt" viewBox="0 0 700.000000 700.000000"
 preserveAspectRatio="xMidYMid meet">
<metadata>
Created by potrace 1.11, written by Peter Selinger 2001-2013
</metadata>
<g transform="translate(0.000000,700.000000) scale(0.100000,-0.100000)"
fill="#000000" stroke="none">
<path d="M2054 5710 c-140 -28 -252 -136 -289 -276 -23 -87 -23 -3260 0 -3347
28 -109 92 -200 166 -238 30 -15 135 -38 182 -39 4 0 7 -107 7 -237 1 -171 4
-242 13 -254 41 -53 153 -53 194 0 9 12 12 83 13 254 l0 237 1160 0 1160 0 0
-237 c1 -171 4 -242 13 -254 41 -53 153 -53 194 0 9 12 12 83 13 254 0 130 3
237 8 237 46 1 151 24 181 39 45 23 102 85 131 140 52 103 50 30 50 1771 0
1796 4 1684 -68 1790 -42 62 -109 116 -179 145 -47 20 -78 20 -1478 22 -786 0
-1448 -3 -1471 -7z m2827 -181 c79 -37 133 -90 171 -167 l33 -67 0 -775 0
-775 -30 -58 c-37 -74 -117 -148 -193 -179 l-57 -23 -1305 0 -1305 0 -57 23
c-76 31 -160 108 -195 180 l-28 57 0 775 0 775 26 55 c46 99 120 164 222 196
34 10 288 12 1352 11 l1310 -2 56 -26z m-2445 -2872 c22 -26 24 -37 24 -127 0
-120 -9 -146 -55 -165 -50 -21 -314 -21 -355 0 -44 23 -50 43 -50 160 0 105 0
107 30 136 l30 30 176 -3 176 -3 24 -28z m2540 0 c22 -26 24 -37 24 -133 0
-58 -5 -114 -10 -125 -22 -40 -61 -49 -215 -49 -156 0 -204 10 -224 48 -6 12
-11 67 -11 124 0 110 10 140 54 158 11 5 97 8 189 7 l169 -2 24 -28z"/>
</g>
</svg>
